<svg id="Capa_1" enable-background="new 0 0 512 512" height="512" viewBox="0 0 512 512" width="512" xmlns="http://www.w3.org/2000/svg"><g><path d="m383.5 35.2-10.923 100.8-56.877 16.5c-13.2-7.8-28.2-12.9-43.799-15l-15.901-31.5-15.901 31.5c-15.599 2.1-30.599 7.2-43.799 15l-65.547-31.5-2.253-85.8c37.5-21.901 81-35.2 127.5-35.2s90 13.299 127.5 35.2z" fill="#ff641a"/><path d="m271.901 137.5c15.599 2.1 30.599 7.2 43.799 15l56.878-16.5 10.922-100.8c-37.5-21.901-81-35.2-127.5-35.2v106z" fill="#f03800"/><path d="m196 359.799 4.835 73.619-72.335 43.382c-76.199-44.1-128.5-126.6-128.5-220.8l98.65-30 37.35 30c0 44.399 24 83.099 60 103.799z" fill="#ff641a"/><path d="m512 256c0 94.2-52.301 176.7-128.5 220.8l-78.601-54.242 11.101-62.759c36-20.7 60-59.399 60-103.799l37.5-30z" fill="#f03800"/><path d="m383.5 476.8c-37.5 21.899-81 35.2-127.5 35.2s-90-13.301-127.5-35.2l67.5-117.001c17.701 10.201 38.101 16.201 60 16.201s42.299-6 60-16.201z" fill="#474f54"/><path d="m383.5 476.8-67.5-117.001c-17.701 10.201-38.101 16.201-60 16.201v136c46.5 0 90-13.301 127.5-35.2z" fill="#32393f"/><g id="Trivia_1_"><g><path d="m196.3 152.5c-36 20.4-60.3 59.099-60.3 103.5h-136c0-94.2 52.301-176.7 128.5-220.8z" fill="#474f54"/><path d="m512 256h-136c0-44.401-24.3-83.101-60.3-103.5l67.8-117.3c76.199 44.1 128.5 126.6 128.5 220.8z" fill="#32393f"/><g><path d="m256 391c-74.439 0-135-60.561-135-135 0-32.848 12.041-64.464 33.904-89.023 19.776-22.214 46.277-37.268 75.304-42.932l12.376-24.753c2.54-5.082 7.734-8.292 13.416-8.292s10.876 3.21 13.417 8.292l12.376 24.753c29.027 5.664 55.528 20.718 75.304 42.932 21.862 24.559 33.903 56.175 33.903 89.023 0 74.439-60.561 135-135 135z" fill="#fed843"/></g><path d="m391 256c0-32.848-12.041-64.464-33.904-89.023-19.776-22.214-46.277-37.268-75.304-42.932l-12.376-24.753c-2.54-5.082-7.734-8.292-13.416-8.292v300c74.439 0 135-60.561 135-135z" fill="#fabe2c"/><g><path d="m301 226c0 18.9-12.001 36-29.7 42.299 0 8.401-6.899 16.5-15.3 16.5-8.101 0-15-5.4-15-13.799 0-12.601 5.7-23.101 15-28.5 1.5-.901 3.3-1.8 5.099-2.401 6-2.1 9.901-7.8 9.901-14.099 0-8.401-6.599-15-15-15s-15 6.599-15 15c0 8.399-6.599 15-15 15s-15-6.601-15-15c0-24.901 20.099-45 45-45s45 20.099 45 45z" fill="#474f54"/></g><g><circle cx="256" cy="316" fill="#474f54" r="15"/></g><g fill="#32393f"><path d="m271 316c0-8.286-6.716-15-15-15v30c8.284 0 15-6.716 15-15z"/><path d="m301 226c0 18.9-12.001 36-29.7 42.299 0 8.401-6.899 16.5-15.3 16.5v-42.299c1.5-.901 3.3-1.8 5.099-2.401 6-2.1 9.901-7.8 9.901-14.099 0-8.401-6.599-15-15-15v-30c24.901 0 45 20.099 45 45z"/></g></g></g></g></svg>